<svg xmlns="http://www.w3.org/2000/svg" xmlns:xlink="http://www.w3.org/1999/xlink" width="40" zoomAndPan="magnify" viewBox="0 0 30 30.000001" height="40" preserveAspectRatio="xMidYMid meet" version="1.0"><defs><g/><clipPath id="id1"><path d="M 0.484375 17 L 29.515625 17 L 29.515625 29 L 0.484375 29 Z M 0.484375 17 " clip-rule="nonzero"/></clipPath></defs><g clip-path="url(#id1)"><path stroke-linecap="butt" transform="matrix(0.725806, 0, 0, 0.725806, 0.48387, 19.410744)" fill="none" stroke-linejoin="miter" d="M 7.546181 3.17992 C 7.347049 2.95926 7.131772 2.79242 6.900348 2.679399 C 6.668924 2.560996 6.340626 2.501795 5.904688 2.501795 C 5.468751 2.501795 5.145834 2.566378 4.935938 2.690163 C 4.726042 2.819329 4.623785 2.970024 4.623785 3.142246 C 4.623785 3.443635 4.887501 3.658913 5.425695 3.782698 L 7.508508 4.326274 C 8.272744 4.514642 8.848612 4.853704 9.23073 5.338079 C 9.61823 5.817073 9.81198 6.392941 9.81198 7.060302 C 9.81198 7.679225 9.64514 8.222802 9.316841 8.680267 C 8.993924 9.143114 8.525695 9.498323 7.917535 9.745892 C 7.309376 9.998843 6.598959 10.12801 5.791667 10.12801 C 4.865973 10.12801 4.02639 9.971934 3.267535 9.670545 C 2.514063 9.363774 1.986633 8.960128 1.696008 8.464989 C 1.652952 8.38426 1.631424 8.319677 1.631424 8.282003 C 1.631424 8.195892 1.679862 8.120545 1.771355 8.050579 L 3.063022 7.162559 C 3.154515 7.103357 3.240626 7.076448 3.315973 7.076448 C 3.407466 7.076448 3.482813 7.114121 3.542015 7.184086 C 3.827258 7.555441 4.112501 7.813774 4.408508 7.964468 C 4.699133 8.115163 5.092015 8.19051 5.57639 8.19051 C 6.044619 8.19051 6.415973 8.125927 6.690452 7.99676 C 6.959549 7.867593 7.094098 7.689989 7.094098 7.463948 C 7.094098 7.302489 7.029515 7.167941 6.894966 7.049538 C 6.760417 6.931135 6.566667 6.845024 6.302952 6.785823 L 4.392362 6.322975 C 3.644272 6.134607 3.046876 5.790163 2.600174 5.28426 C 2.158855 4.778357 1.938195 4.191725 1.938195 3.535128 C 1.938195 2.98617 2.094272 2.485649 2.411806 2.028184 C 2.729341 1.5761 3.181424 1.21551 3.768056 0.951795 C 4.354688 0.688079 5.032813 0.553531 5.802431 0.553531 C 6.555903 0.553531 7.255556 0.677316 7.90139 0.924885 C 8.541841 1.172454 9.01007 1.500753 9.295313 1.909781 C 9.354515 1.985128 9.381424 2.060475 9.381424 2.125059 C 9.381424 2.18426 9.354515 2.238079 9.295313 2.286517 L 7.922917 3.282177 C 7.885244 3.314468 7.836806 3.330614 7.788369 3.330614 C 7.729167 3.330614 7.648438 3.282177 7.546181 3.17992 Z M 13.843056 6.269156 C 13.783855 6.269156 13.735417 6.285302 13.697744 6.328357 C 13.66007 6.360649 13.643924 6.409086 13.643924 6.457524 L 13.643924 9.632871 C 13.643924 9.76742 13.611633 9.864295 13.541667 9.918114 C 13.477084 9.971934 13.369445 9.998843 13.229515 9.998843 L 11.130556 9.998843 C 11.006772 9.998843 10.915279 9.977316 10.866841 9.928878 C 10.818404 9.875059 10.791494 9.79433 10.791494 9.686691 L 10.791494 0.967941 C 10.791494 0.876447 10.813022 0.806482 10.856077 0.758045 C 10.893751 0.704225 10.958334 0.682697 11.033681 0.682697 L 13.417883 0.682697 C 13.482466 0.682697 13.536286 0.704225 13.579341 0.752663 C 13.622397 0.795718 13.643924 0.860302 13.643924 0.946413 L 13.643924 3.858045 C 13.643924 4.024885 13.719272 4.110996 13.869966 4.110996 L 15.979688 4.110996 C 16.130383 4.110996 16.20573 4.024885 16.20573 3.858045 L 16.20573 0.946413 C 16.20573 0.860302 16.227258 0.795718 16.264931 0.752663 C 16.307987 0.704225 16.361806 0.682697 16.431772 0.682697 L 18.815973 0.682697 C 18.89132 0.682697 18.950522 0.704225 18.993577 0.758045 C 19.036633 0.806482 19.058161 0.876447 19.058161 0.967941 L 19.058161 9.686691 C 19.058161 9.79433 19.031251 9.875059 18.977431 9.928878 C 18.928994 9.977316 18.842883 9.998843 18.719098 9.998843 L 16.62014 9.998843 C 16.480209 9.998843 16.37257 9.971934 16.307987 9.918114 C 16.238022 9.864295 16.20573 9.76742 16.20573 9.632871 L 16.20573 6.457524 C 16.20573 6.409086 16.184202 6.360649 16.146529 6.328357 C 16.114237 6.285302 16.065799 6.269156 16.006598 6.269156 Z M 24.612327 10.12801 C 23.697397 10.12801 22.900869 9.928878 22.217362 9.541378 C 21.533855 9.153878 21.006424 8.599538 20.640452 7.883739 C 20.27448 7.167941 20.091494 6.328357 20.091494 5.364989 C 20.091494 4.401621 20.27448 3.562038 20.645834 2.835475 C 21.02257 2.108913 21.550001 1.549191 22.228126 1.150927 C 22.911633 0.752663 23.708161 0.553531 24.612327 0.553531 C 25.50573 0.553531 26.291494 0.752663 26.969619 1.150927 C 27.647744 1.549191 28.175175 2.108913 28.546529 2.835475 C 28.917883 3.562038 29.106251 4.401621 29.106251 5.364989 C 29.106251 6.322975 28.923265 7.157177 28.551911 7.878357 C 28.185938 8.599538 27.658508 9.153878 26.980383 9.541378 C 26.30764 9.928878 25.516494 10.12801 24.612327 10.12801 Z M 24.612327 8.1636 C 24.978299 8.1636 25.274306 8.077489 25.489584 7.894503 C 25.710244 7.716899 25.86632 7.426274 25.968577 7.02801 C 26.065452 6.624364 26.119272 6.080788 26.119272 5.402663 C 26.119272 4.363948 26.000869 3.621239 25.764063 3.169156 C 25.53264 2.717073 25.14514 2.491031 24.612327 2.491031 C 24.068751 2.491031 23.675869 2.717073 23.433681 3.169156 C 23.196876 3.621239 23.078473 4.363948 23.078473 5.402663 C 23.078473 6.080788 23.126911 6.624364 23.229168 7.02801 C 23.331424 7.426274 23.487501 7.716899 23.708161 7.894503 C 23.934202 8.077489 24.235591 8.1636 24.612327 8.1636 Z M 38.314758 3.70735 C 38.314758 4.310128 38.169445 4.832177 37.884202 5.278878 C 37.593577 5.720198 37.189932 6.064642 36.662501 6.301448 C 36.140452 6.538253 35.537675 6.656656 34.85955 6.656656 L 33.142709 6.656656 C 33.040452 6.656656 32.992015 6.705093 32.992015 6.796586 L 32.992015 9.632871 C 32.992015 9.76742 32.959723 9.864295 32.889758 9.918114 C 32.819793 9.971934 32.717536 9.998843 32.577605 9.998843 L 30.462501 9.998843 C 30.338716 9.998843 30.252605 9.977316 30.204168 9.928878 C 30.161112 9.875059 30.139584 9.79433 30.139584 9.686691 L 30.139584 0.967941 C 30.139584 0.779572 30.220313 0.682697 30.37639 0.682697 L 34.536633 0.682697 C 35.241668 0.682697 35.876737 0.795718 36.452605 1.027142 C 37.023091 1.258566 37.480557 1.597628 37.808855 2.049711 C 38.147918 2.501795 38.314758 3.056135 38.314758 3.70735 Z M 35.403126 3.669677 C 35.403126 3.379052 35.300869 3.136864 35.101737 2.95926 C 34.902605 2.781656 34.655036 2.690163 34.359029 2.690163 L 33.277258 2.690163 C 33.169619 2.690163 33.094272 2.711691 33.051216 2.754746 C 33.013543 2.79242 32.992015 2.862385 32.992015 2.953878 L 32.992015 4.374711 C 32.992015 4.471586 33.008161 4.546934 33.040452 4.589989 C 33.072744 4.627663 33.126563 4.649191 33.201911 4.649191 L 34.434376 4.649191 C 34.725001 4.649191 34.961807 4.557698 35.139411 4.369329 C 35.311633 4.180961 35.403126 3.949538 35.403126 3.669677 Z M 35.403126 3.669677 " stroke="rgb(82.348633%, 12.159729%, 17.649841%)" stroke-width="0.471116" stroke-opacity="1" stroke-miterlimit="4"/></g><g fill="rgb(82.348633%, 12.159729%, 17.649841%)" fill-opacity="1"><g transform="translate(8.507841, 17.254137)"><g><path d="M 9.140625 -10.046875 C 8.847656 -10.367188 8.53125 -10.613281 8.1875 -10.78125 C 7.851562 -10.957031 7.363281 -11.046875 6.71875 -11.046875 C 6.082031 -11.046875 5.609375 -10.953125 5.296875 -10.765625 C 4.984375 -10.585938 4.828125 -10.367188 4.828125 -10.109375 C 4.828125 -9.660156 5.222656 -9.347656 6.015625 -9.171875 L 9.09375 -8.375 C 10.21875 -8.082031 11.0625 -7.582031 11.625 -6.875 C 12.195312 -6.164062 12.484375 -5.316406 12.484375 -4.328125 C 12.484375 -3.421875 12.238281 -2.625 11.75 -1.9375 C 11.269531 -1.257812 10.582031 -0.734375 9.6875 -0.359375 C 8.789062 0.00390625 7.742188 0.1875 6.546875 0.1875 C 5.191406 0.1875 3.957031 -0.0351562 2.84375 -0.484375 C 1.726562 -0.941406 0.953125 -1.535156 0.515625 -2.265625 C 0.453125 -2.378906 0.421875 -2.46875 0.421875 -2.53125 C 0.421875 -2.65625 0.488281 -2.769531 0.625 -2.875 L 2.53125 -4.1875 C 2.664062 -4.269531 2.789062 -4.3125 2.90625 -4.3125 C 3.039062 -4.3125 3.148438 -4.253906 3.234375 -4.140625 C 3.660156 -3.597656 4.085938 -3.21875 4.515625 -3 C 4.953125 -2.78125 5.523438 -2.671875 6.234375 -2.671875 C 6.929688 -2.671875 7.476562 -2.765625 7.875 -2.953125 C 8.28125 -3.140625 8.484375 -3.398438 8.484375 -3.734375 C 8.484375 -3.972656 8.382812 -4.175781 8.1875 -4.34375 C 7.988281 -4.519531 7.695312 -4.648438 7.3125 -4.734375 L 4.5 -5.421875 C 3.382812 -5.691406 2.5 -6.203125 1.84375 -6.953125 C 1.195312 -7.703125 0.875 -8.5625 0.875 -9.53125 C 0.875 -10.332031 1.109375 -11.066406 1.578125 -11.734375 C 2.046875 -12.410156 2.710938 -12.941406 3.578125 -13.328125 C 4.441406 -13.722656 5.441406 -13.921875 6.578125 -13.921875 C 7.679688 -13.921875 8.707031 -13.738281 9.65625 -13.375 C 10.613281 -13.007812 11.300781 -12.523438 11.71875 -11.921875 C 11.800781 -11.804688 11.84375 -11.703125 11.84375 -11.609375 C 11.84375 -11.523438 11.800781 -11.445312 11.71875 -11.375 L 9.703125 -9.90625 C 9.640625 -9.851562 9.570312 -9.828125 9.5 -9.828125 C 9.414062 -9.828125 9.296875 -9.898438 9.140625 -10.046875 Z M 9.140625 -10.046875 "/></g></g></g></svg>